<?xml version="1.0" encoding="iso-8859-1"?>
<!-- Uploaded to: SVG Repo, www.svgrepo.com, Generator: SVG Repo Mixer Tools -->
<svg fill="#ef4444" height="800px" width="800px" version="1.1" id="Layer_1" xmlns="http://www.w3.org/2000/svg" xmlns:xlink="http://www.w3.org/1999/xlink" 
	 viewBox="0 0 512 512" xml:space="preserve">
<g>
	<g>
		<g>
			<path d="M415.07,285.958l-87.023-87.024l87.023-87.023c12-11.999,4.044-33.191-14.218-33.191H184.207
				c-7.159,0-12.962,5.803-12.962,12.962v214.506c0,7.159,5.803,12.962,12.962,12.962h216.646
				C419.091,319.15,427.083,297.971,415.07,285.958z"/>
			<path d="M125.878,0c-19.14,0-34.657,15.517-34.657,34.658c0,11.934,6.033,22.458,15.215,28.691v429.208
				c0,10.738,8.705,19.443,19.443,19.443s19.443-8.705,19.443-19.443V63.349c9.181-6.233,15.215-16.757,15.215-28.691
				C160.536,15.517,145.019,0,125.878,0z"/>
		</g>
	</g>
</g>
</svg>