<svg xmlns="http://www.w3.org/2000/svg" xmlns:xlink="http://www.w3.org/1999/xlink" width="500" zoomAndPan="magnify" viewBox="0 0 375 374.999991" height="500" preserveAspectRatio="xMidYMid meet" version="1.0"><defs><g/></defs><g fill="#009dff" fill-opacity="1"><g transform="translate(32.141614, 271.987221)"><g><path d="M 18.921875 0 L 18.921875 -161.78125 L 74.75 -161.78125 L 74.75 -144.75 L 75.375 -144.75 C 89.882812 -159.257812 105.335938 -166.515625 121.734375 -166.515625 C 133.503906 -166.515625 144.539062 -164.097656 154.84375 -159.265625 C 165.144531 -154.429688 172.925781 -146.96875 178.1875 -136.875 C 194.582031 -156.632812 212.453125 -166.515625 231.796875 -166.515625 C 249.035156 -166.515625 263.859375 -161.675781 276.265625 -152 C 288.671875 -142.332031 294.875 -127.195312 294.875 -106.59375 L 294.875 0 L 239.046875 0 L 239.046875 -91.453125 C 239.046875 -100.078125 236.679688 -107.28125 231.953125 -113.0625 C 227.222656 -118.84375 220.128906 -121.734375 210.671875 -121.734375 C 202.472656 -121.734375 196.21875 -119.257812 191.90625 -114.3125 C 187.59375 -109.375 185.226562 -103.4375 184.8125 -96.5 L 184.8125 0 L 128.984375 0 L 128.984375 -91.453125 C 128.984375 -100.078125 126.617188 -107.28125 121.890625 -113.0625 C 117.160156 -118.84375 110.066406 -121.734375 100.609375 -121.734375 C 91.984375 -121.734375 85.515625 -119.050781 81.203125 -113.6875 C 76.898438 -108.332031 74.75 -101.972656 74.75 -94.609375 L 74.75 0 Z M 18.921875 0 "/></g></g></g></svg>